<svg width="48" height="33" viewBox="0 0 48 33" fill="none" xmlns="http://www.w3.org/2000/svg">
<path d="M16.9038 2H10.8059C5.94253 2 2 5.94254 2 10.8059V21.2629C2 26.1263 5.94254 30.0688 10.8059 30.0688H27" stroke="#67005E" stroke-width="4"/>
<path d="M25 31.1699V3.44623C25 2.52656 26.061 2.01241 26.7828 2.58228L34.7462 8.86917C35.1592 9.1952 35.7451 9.18338 36.1446 8.84097L43.2714 2.73231C43.9854 2.12029 45.0885 2.62763 45.0885 3.56805V31.1699" stroke="#67005E" stroke-width="4"/>
<path d="M16.9611 20.1625C17.1014 20.1627 17.2363 20.2164 17.3383 20.3127C17.4403 20.409 17.5017 20.5406 17.5099 20.6806C17.5181 20.8207 17.4726 20.9585 17.3825 21.0661C17.2925 21.1737 17.1648 21.2428 17.0255 21.2594L16.9611 21.2632H13.1085C12.9682 21.2631 12.8333 21.2094 12.7313 21.1131C12.6293 21.0168 12.5679 20.8852 12.5597 20.7451C12.5515 20.6051 12.597 20.4672 12.6871 20.3596C12.7771 20.2521 12.9048 20.1829 13.0441 20.1664L13.1085 20.1625H16.9611ZM17.3084 12.1095C17.4362 12.2373 17.5376 12.389 17.6067 12.5559C17.6759 12.7229 17.7115 12.9018 17.7115 13.0826C17.7115 13.2633 17.6759 13.4422 17.6067 13.6092C17.5376 13.7761 17.4362 13.9278 17.3084 14.0556L11.3116 20.0524C11.2416 20.1225 11.1595 20.1793 11.0694 20.2203L8.9758 21.1719C8.51239 21.3827 8.03577 20.9055 8.24656 20.4421L9.1987 18.3485C9.23951 18.2584 9.29618 18.1764 9.36601 18.1063L15.3628 12.1095C15.6209 11.8516 15.9708 11.7067 16.3356 11.7067C16.7005 11.7067 17.0504 11.8516 17.3084 12.1095ZM9.8063 10.2559C9.92111 10.2559 10.033 10.2919 10.1264 10.3587C10.2197 10.4255 10.2899 10.5198 10.327 10.6285L10.3985 10.8365C10.48 11.0752 10.615 11.2921 10.7933 11.4705C10.9716 11.6489 11.1885 11.7841 11.4271 11.8657L11.6352 11.9367C11.7437 11.9739 11.8379 12.0441 11.9046 12.1374C11.9713 12.2308 12.0071 12.3426 12.0071 12.4573C12.0071 12.5721 11.9713 12.6839 11.9046 12.7773C11.8379 12.8706 11.7437 12.9408 11.6352 12.978L11.4271 13.0495C11.1884 13.131 10.9715 13.2661 10.7931 13.4444C10.6147 13.6227 10.4795 13.8395 10.3979 14.0782L10.327 14.2862C10.2898 14.3947 10.2196 14.4889 10.1262 14.5556C10.0329 14.6223 9.92103 14.6582 9.8063 14.6582C9.69158 14.6582 9.57972 14.6223 9.48637 14.5556C9.39302 14.4889 9.32284 14.3947 9.28565 14.2862L9.21411 14.0782C9.13265 13.8394 8.99759 13.6226 8.81928 13.4442C8.64096 13.2657 8.42415 13.1306 8.18547 13.049L7.97743 12.978C7.8689 12.9408 7.7747 12.8706 7.70801 12.7773C7.64132 12.6839 7.60547 12.5721 7.60547 12.4573C7.60547 12.3426 7.64132 12.2308 7.70801 12.1374C7.7747 12.0441 7.8689 11.9739 7.97743 11.9367L8.18547 11.8651C8.42419 11.7837 8.64108 11.6486 8.81949 11.4703C8.99789 11.292 9.13308 11.0752 9.21466 10.8365L9.28565 10.6285C9.32274 10.5198 9.39287 10.4255 9.48622 10.3587C9.57958 10.2919 9.6915 10.2559 9.8063 10.2559Z" fill="#67005E"/>
</svg>
