<svg width="120" height="120" viewBox="0 0 120 120" fill="none" xmlns="http://www.w3.org/2000/svg">
<rect width="120" height="120" rx="60" fill="#F1F1F1"/>
<path d="M46 70C45.4696 70 44.9609 69.7893 44.5858 69.4142C44.2107 69.0391 44 68.5304 44 68C44 67.4696 44.2107 66.9609 44.5858 66.5858C44.9609 66.2107 45.4696 66 46 66H74C74.5304 66 75.0391 66.2107 75.4142 66.5858C75.7893 66.9609 76 67.4696 76 68C76 68.5304 75.7893 69.0391 75.4142 69.4142C75.0391 69.7893 74.5304 70 74 70H46ZM46 80C45.4696 80 44.9609 79.7893 44.5858 79.4142C44.2107 79.0391 44 78.5304 44 78C44 77.4696 44.2107 76.9609 44.5858 76.5858C44.9609 76.2107 45.4696 76 46 76H74C74.5304 76 75.0391 76.2107 75.4142 76.5858C75.7893 76.9609 76 77.4696 76 78C76 78.5304 75.7893 79.0391 75.4142 79.4142C75.0391 79.7893 74.5304 80 74 80H46Z" fill="#494949"/>
<path fill-rule="evenodd" clip-rule="evenodd" d="M64.74 24H38C36.4087 24 34.8826 24.6321 33.7574 25.7574C32.6321 26.8826 32 28.4087 32 30V90C32 91.5913 32.6321 93.1174 33.7574 94.2426C34.8826 95.3679 36.4087 96 38 96H82C83.5913 96 85.1174 95.3679 86.2426 94.2426C87.3679 93.1174 88 91.5913 88 90V48.808C87.9996 47.3059 87.4358 45.8586 86.42 44.752L69.164 25.944C68.6016 25.331 67.918 24.8416 67.1564 24.5069C66.3948 24.1723 65.5719 23.9996 64.74 24ZM36 30C36 29.4696 36.2107 28.9609 36.5858 28.5858C36.9609 28.2107 37.4696 28 38 28H64.74C65.0175 27.9997 65.2921 28.0572 65.5462 28.1687C65.8003 28.2803 66.0284 28.4435 66.216 28.648L83.472 47.456C83.8111 47.8246 83.9995 48.3071 84 48.808V90C84 90.5304 83.7893 91.0391 83.4142 91.4142C83.0391 91.7893 82.5304 92 82 92H38C37.4696 92 36.9609 91.7893 36.5858 91.4142C36.2107 91.0391 36 90.5304 36 90V30Z" fill="#494949"/>
<path d="M66 28.4004V47.2004H84.8" stroke="#494949" stroke-linecap="round" stroke-linejoin="round"/>
<path d="M52.5358 44.532C53.107 44.5495 53.6759 44.4521 54.2088 44.2456C54.7416 44.0391 55.2276 43.7277 55.6378 43.3298C56.0481 42.932 56.3742 42.4558 56.5969 41.9295C56.8197 41.4032 56.9344 40.8375 56.9344 40.266C56.9344 39.6946 56.8197 39.1289 56.5969 38.6026C56.3742 38.0763 56.0481 37.6001 55.6378 37.2023C55.2276 36.8044 54.7416 36.493 54.2088 36.2865C53.6759 36.08 53.107 35.9826 52.5358 36C51.427 36.034 50.375 36.4983 49.6027 37.2947C48.8304 38.091 48.3984 39.1567 48.3984 40.266C48.3984 41.3754 48.8304 42.4411 49.6027 43.2374C50.375 44.0338 51.427 44.4981 52.5358 44.532Z" fill="#494949"/>
<path fill-rule="evenodd" clip-rule="evenodd" d="M61.064 53.7761C61.064 49.2401 57.244 45.9561 52.532 45.9561C47.82 45.9561 44 49.2361 44 53.7761V55.9121C44.0011 56.289 44.1516 56.6502 44.4185 56.9164C44.6854 57.1826 45.047 57.3321 45.424 57.3321H59.644C60.0203 57.331 60.3809 57.1811 60.6469 56.915C60.913 56.6489 61.0629 56.2883 61.064 55.9121V53.7761Z" fill="#494949"/>
</svg>
